<svg xmlns="http://www.w3.org/2000/svg" viewBox="0 0 24 24" fill="none" stroke="currentColor" stroke-width="2" stroke-linecap="round" stroke-linejoin="round">
  <path d="M17.5 19c0-1.7-1.3-3-3-3c-1.1 0-2.1.6-2.6 1.5c-.5-.9-1.5-1.5-2.6-1.5c-1.7 0-3 1.3-3 3"/>
  <path d="M22 13c0-3.9-3.1-7-7-7c-.4 0-.9 0-1.3.1C12.9 4.2 11 3 9 3C5.7 3 3 5.7 3 9c0 .4 0 .7.1 1.1C1.3 11.2 0 13.2 0 15.5C0 19.1 2.9 22 6.5 22h12c3 0 5.5-2.5 5.5-5.5c0-.6-.1-1.2-.3-1.7c.5-.6.8-1.4.8-2.3V13z"/>
  <path d="M12 11V7"/>
  <path d="M9 10l3-3l3 3"/>
</svg>
